<svg xmlns="http://www.w3.org/2000/svg" xml:lang="en" 
     xmlns:xlink="http://www.w3.org/1999/xlink"
     id="gameboard" width="800" height="800" >

    <!-- <rect id="gameboard"  
        fill="#224"
        x="100%"
        y="100%"/>-->

     <!--<svg id="gameboard" backgroundcolor="#224" width="100%" height="100vh"></svg>-->
    <title>Collector of diamonds</title>
    <desc>
        Click or tap as many diamonds as you can
        before the timer runs out.
    </desc>
    <link xmlns="http://www.w3.org/1999/xhtml"
          rel="stylesheet" href="css.css"/>
    <defs>
        <svg id="gem" viewBox="0 0 100 100"
             x="-8" y="-8" width="16" height="16">
            <polygon points="0,25 35,0 65,0 100,25 50,100" />
            <g fill="white" fill-opacity="0.3">
                <polygon points="0,25 30,30 50,100" />
                <polygon points="100,25 30,70 50,100" />
                <polygon points="28,5 35,0 65,0 72,5 50,10" />
                <polygon points="50,10 30,30 50,35 70,30" />
                <polygon points="72,5 70,30 100,25" />
            </g>
            <g stroke="white" stroke-opacity="0.5" fill-opacity="0.5">
                <polygon points="100,25 70,30 50,100" />
                <polygon points="28,5 30,30 0,25" />
            </g>
        </svg>
    </defs>
    <text font-size="30" font-family="courgette" fill="white" role="timer" aria-atomic="true"
          x="100%" y="0.9em" text-anchor="end" >Time remaining:<tspan x="0">
        </tspan> <tspan id="timer" x="100%" dy="0.9em">00.0</tspan><animate attributeName="fill-opacity" dur="4s" values="1; 0;1" repeatCount="indefinite"></animate>
       
    </text>
    <!--tu można klinkąć i liczą się pkt-->
    <text font-size="30" font-family="courgette" fill="white" role="status" aria-atomic="true"
          y="100%" dy="-0.1em" text-anchor="start" fill-opacity="1">

          <animate id="timer" attributeName="font-size" dur="3s" values="30; 60;30" repeatCount="indefinite"></animate>
          
          <tspan id="scoreboard">0</tspan> collected
    </text>
    <g id="misses"></g><!-- group of missed diamonds -->

<!--<animate id="aria-live" attributeName="fill-opacity" dur="2s" values="2; 0;2"></animate>
-->
<!--<animate id="scoreboard" attributeName="height" dur="3s"
repeatCount="indefinite" from="0" to="1000" fill="freeze"></animate>-->


    <script xlink:href="game.js" />
</svg>